<?xml version="1.0" encoding="UTF-8"?>
<svg width="17px" height="20px" viewBox="0 0 17 20" version="1.1" xmlns="http://www.w3.org/2000/svg" xmlns:xlink="http://www.w3.org/1999/xlink">
    <!-- Generator: Sketch 62 (91390) - https://sketch.com -->
    <title>icon48/copy</title>
    <desc>Created with Sketch.</desc>
    <g id="Symbols" stroke="none" stroke-width="1" fill="none" fill-rule="evenodd">
        <g id="knowledge_base_detailed" transform="translate(-382.000000, -454.000000)" fill="#0090F5">
            <g id="icon48/copy_python" transform="translate(378.000000, 452.000000)">
                <g id="Group-9" transform="translate(4.000000, 2.500000)">
                    <path d="M16.06495,5.18505 L11.06495,0.18505 C10.95045,0.06505 10.78995,5e-05 10.62495,5e-05 L5.57995,5e-05 C4.70995,5e-05 3.99995,0.71005 3.99995,1.58005 L3.99995,5.25005 L5.24995,5.25005 L5.24995,1.58005 C5.24995,1.40005 5.39995,1.25005 5.57995,1.25005 L10.36545,1.25005 L11.24995,2.13455 L14.11545,5.00005 L14.99995,5.88455 L14.99995,13.67005 C14.99995,13.85005 14.84995,14.00005 14.66995,14.00005 L10.99995,14.00005 L10.99995,15.25005 L14.66995,15.25005 C15.53995,15.25005 16.24995,14.54005 16.24995,13.67005 L16.24995,5.62505 C16.24995,5.46005 16.18495,5.29955 16.06495,5.18505" id="Fill-1"></path>
                    <path d="M11,17.6699 C11,17.8499 10.85,17.9999 10.67,17.9999 L1.58,17.9999 C1.4,17.9999 1.25,17.8499 1.25,17.6699 L1.25,5.5799 C1.25,5.3999 1.4,5.2499 1.58,5.2499 L6.365,5.2499 L7.25,6.1349 L10.115,8.9999 L11,9.8849 L11,17.6699 Z M12.065,9.1849 L7.065,4.1849 C6.95,4.0649 6.79,3.9999 6.625,3.9999 L1.58,3.9999 C0.71,3.9999 0,4.7099 0,5.5799 L0,17.6699 C0,18.5399 0.71,19.2499 1.58,19.2499 L10.67,19.2499 C11.54,19.2499 12.25,18.5399 12.25,17.6699 L12.25,9.6249 C12.25,9.4599 12.185,9.2999 12.065,9.1849 L12.065,9.1849 Z" id="Fill-3"></path>
                    <polygon id="Fill-5" points="11.25 0.625 11.25 5 15.625 5 15.625 6.25 10 6.25 10 0.625"></polygon>
                    <polygon id="Fill-7" points="7.25 4.625 7.25 9 11.625 9 11.625 10.25 6 10.25 6 4.625"></polygon>
                </g>
            </g>
        </g>
    </g>
</svg>