<?xml version="1.0" encoding="UTF-8" standalone="no"?>
<!-- Created with Inkscape (http://www.inkscape.org/) -->

<svg
   version="1.1"
   id="svg2"
   width="200"
   height="52"
   viewBox="0 0 200 51.999997"
   sodipodi:docname="spike_python_logo.svg"
   xml:space="preserve"
   inkscape:version="1.2.2 (b0a8486541, 2022-12-01)"
   xmlns:inkscape="http://www.inkscape.org/namespaces/inkscape"
   xmlns:sodipodi="http://sodipodi.sourceforge.net/DTD/sodipodi-0.dtd"
   xmlns:xlink="http://www.w3.org/1999/xlink"
   xmlns="http://www.w3.org/2000/svg"
   xmlns:svg="http://www.w3.org/2000/svg"><defs
     id="defs6"><rect
       x="1453.3662"
       y="194.67709"
       width="246.73819"
       height="297.74283"
       id="rect566" /><linearGradient
       id="linearGradient2795"><stop
         style="stop-color:#b8b8b8;stop-opacity:0.49803922"
         offset="0"
         id="stop2797" /><stop
         style="stop-color:#7f7f7f;stop-opacity:0"
         offset="1"
         id="stop2799" /></linearGradient><linearGradient
       id="linearGradient2787"><stop
         style="stop-color:#7f7f7f;stop-opacity:0.5"
         offset="0"
         id="stop2789" /><stop
         style="stop-color:#7f7f7f;stop-opacity:0"
         offset="1"
         id="stop2791" /></linearGradient><linearGradient
       id="linearGradient3676"><stop
         style="stop-color:#b2b2b2;stop-opacity:0.5"
         offset="0"
         id="stop3678" /><stop
         style="stop-color:#b3b3b3;stop-opacity:0"
         offset="1"
         id="stop3680" /></linearGradient><linearGradient
       id="linearGradient3236"><stop
         style="stop-color:#f4f4f4;stop-opacity:1"
         offset="0"
         id="stop3244" /><stop
         style="stop-color:#ffffff;stop-opacity:1"
         offset="1"
         id="stop3240" /></linearGradient><linearGradient
       id="linearGradient4671"><stop
         style="stop-color:#ffd43b;stop-opacity:1"
         offset="0"
         id="stop4673" /><stop
         style="stop-color:#ffe873;stop-opacity:1"
         offset="1"
         id="stop4675" /></linearGradient><linearGradient
       id="linearGradient4689"><stop
         style="stop-color:#5a9fd4;stop-opacity:1"
         offset="0"
         id="stop4691" /><stop
         style="stop-color:#306998;stop-opacity:1"
         offset="1"
         id="stop4693" /></linearGradient><linearGradient
       x1="224.23996"
       y1="144.75717"
       x2="-65.308502"
       y2="144.75717"
       id="linearGradient2987"
       xlink:href="#linearGradient4671"
       gradientUnits="userSpaceOnUse"
       gradientTransform="translate(100.2702,99.61116)" /><linearGradient
       x1="172.94208"
       y1="77.475983"
       x2="26.670298"
       y2="76.313133"
       id="linearGradient2990"
       xlink:href="#linearGradient4689"
       gradientUnits="userSpaceOnUse"
       gradientTransform="translate(100.2702,99.61116)" /><linearGradient
       x1="224.23996"
       y1="144.75717"
       x2="-65.308502"
       y2="144.75717"
       id="linearGradient2255"
       xlink:href="#linearGradient4671"
       gradientUnits="userSpaceOnUse"
       gradientTransform="matrix(0.562541,0,0,0.567972,-11.5974,-7.60954)" /><linearGradient
       x1="172.94208"
       y1="76.176224"
       x2="26.670298"
       y2="76.313133"
       id="linearGradient2258"
       xlink:href="#linearGradient4689"
       gradientUnits="userSpaceOnUse"
       gradientTransform="matrix(0.562541,0,0,0.567972,-11.5974,-7.60954)" /><radialGradient
       cx="61.518883"
       cy="132.28575"
       r="29.036913"
       fx="61.518883"
       fy="132.28575"
       id="radialGradient2801"
       xlink:href="#linearGradient2795"
       gradientUnits="userSpaceOnUse"
       gradientTransform="matrix(1,0,0,0.177966,0,108.7434)" /><linearGradient
       x1="150.96111"
       y1="192.35176"
       x2="112.03144"
       y2="137.27299"
       id="linearGradient1475"
       xlink:href="#linearGradient4671"
       gradientUnits="userSpaceOnUse"
       gradientTransform="matrix(0.562541,0,0,0.567972,-9.399749,-5.305317)" /><linearGradient
       x1="26.648937"
       y1="20.603781"
       x2="135.66525"
       y2="114.39767"
       id="linearGradient1478"
       xlink:href="#linearGradient4689"
       gradientUnits="userSpaceOnUse"
       gradientTransform="matrix(0.562541,0,0,0.567972,-9.399749,-5.305317)" /><radialGradient
       cx="61.518883"
       cy="132.28575"
       r="29.036913"
       fx="61.518883"
       fy="132.28575"
       id="radialGradient1480"
       xlink:href="#linearGradient2795"
       gradientUnits="userSpaceOnUse"
       gradientTransform="matrix(2.382716e-8,-0.296405,1.43676,4.683673e-7,-128.544,150.5202)" /></defs><sodipodi:namedview
     id="namedview4"
     pagecolor="#ffffff"
     bordercolor="#666666"
     borderopacity="1.0"
     inkscape:showpageshadow="2"
     inkscape:pageopacity="0.0"
     inkscape:pagecheckerboard="0"
     inkscape:deskcolor="#d1d1d1"
     showgrid="false"
     inkscape:zoom="0.46299342"
     inkscape:cx="304.53996"
     inkscape:cy="312.09947"
     inkscape:window-width="1596"
     inkscape:window-height="856"
     inkscape:window-x="0"
     inkscape:window-y="0"
     inkscape:window-maximized="1"
     inkscape:current-layer="g8" /><g
     inkscape:groupmode="layer"
     inkscape:label="Image"
     id="g8"
     transform="translate(-273.78905,-22.244718)"><g
       id="g626"
       transform="matrix(0.25998023,0,0,0.25998023,202.60931,16.463508)"><path
         style="fill:#000000;stroke-width:0.256699"
         d="m 319.27545,221.8427 c -2.46059,-0.56962 -4.95421,-1.40286 -6.83181,-3.16376 -3.70941,-2.7072 -5.98024,-6.8939 -7.57788,-11.09866 -0.60045,-2.4146 -0.26583,-4.93318 -0.32388,-7.3912 0.42411,-3.69283 2.57386,-6.85325 4.28297,-10.06072 1.94403,-3.42304 4.10902,-7.07447 3.98758,-11.14472 -0.48901,-3.9506 -2.3606,-7.67321 -5.09607,-10.54993 -4.94088,-5.20639 -10.80474,-9.42 -15.90822,-14.45875 -5.94133,-5.64014 -11.02839,-12.29502 -14.15721,-19.91008 -1.64613,-3.66733 -2.54697,-7.61276 -3.40362,-11.52554 -0.84962,-3.27795 -0.22884,-6.6602 -0.37495,-9.99249 -0.0242,-2.94291 0.007,-5.91937 0.85534,-8.76311 0.5821,-3.64883 2.05506,-7.060087 3.55266,-10.412396 1.59218,-2.659018 3.08862,-5.40807 5.24308,-7.66936 3.33908,-3.971657 7.48545,-7.379337 12.40144,-9.180334 2.21584,-0.969124 4.64414,-1.310181 7.04775,-1.131311 2.47355,-0.05701 5.01156,-0.02856 7.31406,0.997603 4.38112,1.687806 8.33353,4.951564 10.22923,9.309713 0.95709,2.738837 0.98053,5.75102 0.60465,8.603461 -0.35203,1.940003 -1.14105,3.758017 -1.74899,5.625978 -1.67707,4.195116 -4.05838,8.078066 -5.52606,12.363856 -1.92674,4.65507 -1.27858,10.18351 1.48998,14.36658 2.28166,3.70097 5.49993,6.70058 8.74136,9.5501 4.02899,3.33003 8.28866,6.38779 12.05638,10.02665 4.65892,4.3652 8.59098,9.56585 11.06006,15.48009 2.99336,6.84826 4.32111,14.37581 3.9944,21.83608 -0.0143,4.9479 -1.1031,9.82312 -2.63615,14.50486 -1.2102,3.55832 -3.0478,6.86158 -4.95493,10.08339 -4.27706,6.58686 -10.78097,12.1145 -18.58937,13.81259 -1.894,0.43492 -3.85467,0.37616 -5.7318,-0.10859 z m 5.22764,-7.72073 c 5.26997,-1.30985 9.23391,-5.42941 12.41031,-9.61234 2.89941,-3.99464 4.849,-8.61212 5.93529,-13.41563 1.22057,-3.28491 0.67045,-6.81575 0.8506,-10.23245 0.0167,-3.05117 0.0846,-6.18039 -0.95769,-9.09216 -0.72155,-2.99029 -1.64188,-5.93499 -3.02025,-8.69131 -2.79368,-6.13367 -7.79754,-10.86365 -12.81584,-15.20128 -6.17035,-5.15694 -13.11132,-9.78919 -17.38196,-16.78627 -1.55721,-2.6553 -2.9257,-5.48275 -3.67892,-8.47276 -0.47473,-3.10664 -0.32765,-6.28823 -0.0241,-9.39732 0.86293,-3.61534 2.38598,-7.01223 4.01098,-10.33741 1.17474,-2.85639 2.54771,-5.645951 3.48252,-8.592326 0.48093,-1.946495 0.89534,-4.083308 0.26711,-6.034156 -1.62959,-3.824016 -5.99783,-5.675106 -9.95307,-5.710091 -2.60409,-0.163787 -5.25753,0.402348 -7.46455,1.821834 -5.54483,2.853646 -9.29885,8.158693 -11.91099,13.668935 -1.60615,3.294504 -2.50138,6.893564 -3.07736,10.494874 -0.33303,3.73056 -0.19367,7.4965 0.0952,11.22428 0.70868,4.28452 1.76669,8.54325 3.63256,12.48383 1.65277,3.58565 3.67411,7.02559 6.15972,10.09459 4.35532,5.56933 9.92706,9.9821 15.26166,14.55958 4.76962,4.19136 9.76616,8.61358 12.18422,14.64968 1.21687,2.94875 1.82772,6.15462 1.5044,9.34491 -0.14883,4.5988 -2.57464,8.69427 -4.73078,12.62333 -1.45145,2.78751 -3.48363,5.49193 -3.53876,8.76344 -0.20843,2.83756 0.88686,5.6008 2.64247,7.7914 1.45076,2.18782 3.65533,3.97257 6.32723,4.30921 1.26173,0.19587 2.5646,0.0999 3.79005,-0.25439 z m -1.7969,-4.16605 c -2.45429,-0.73241 -4.78936,-2.37484 -5.6016,-4.90556 -1.10552,-3.02252 -0.54842,-6.73011 1.86331,-8.97858 1.00024,-1.07296 2.37704,-1.69104 3.7811,-1.99521 2.29822,-0.96784 4.78711,0.26691 6.7339,1.47804 3.51737,2.61042 4.23921,8.27408 1.23639,11.55038 -1.91899,2.30818 -5.04755,3.53888 -8.0131,2.85093 z m 6.95819,-23.37091 c -2.00336,-1.2858 0.95179,-4.52888 2.3204,-2.49773 0.92352,1.2061 -1.06298,4.43897 -2.3204,2.49773 z m -0.14661,-8.73939 c 0.0781,-1.64375 -1.23662,-3.2324 -0.51085,-4.85079 1.328,-1.93113 3.26328,0.4958 3.17733,2.11367 0.59148,1.41058 0.0898,3.62385 -1.83638,3.22403 -0.31825,-0.0717 -0.6109,-0.24578 -0.8301,-0.48691 z m -3.75822,-10.73408 c -0.74985,-1.46882 -3.20059,-3.90539 -0.86614,-5.12367 2.15145,-0.21492 2.75775,2.75142 3.78332,4.12901 0.0952,1.46704 -2.13354,2.41178 -2.91718,0.99466 z m -5.76873,-8.48913 c -1.32505,-1.38484 -3.55328,-2.54483 -3.38424,-4.76347 1.74124,-1.67913 3.64463,0.77197 4.77879,1.98184 0.85584,1.14291 0.36736,3.25099 -1.39455,2.78163 z m -10.06174,-9.762 c -2.2232,-0.56944 -2.106,-4.47041 0.53399,-3.35295 1.45015,0.87554 4.30848,3.0692 2.6572,4.79255 -1.45382,0.90311 -2.46488,-0.39305 -3.19119,-1.4396 z m -7.5758,-8.44567 c -2.19081,-0.67317 -1.3456,-5.32909 0.95156,-3.35976 1.44667,0.97424 3.89122,4.1451 1.33109,5.12556 -1.04228,0.0263 -1.86762,-0.8985 -2.28265,-1.7658 z m -5.38124,-8.26918 c -0.52059,-1.61604 -2.61,-3.38992 -1.35749,-5.10905 1.47024,-1.12277 2.90906,0.94235 3.38736,2.1971 1.3499,1.49789 -0.048,5.09549 -2.02987,2.91195 z m -4.00577,-11.52135 c -0.30506,-1.66539 -1.34183,-4.62698 1.05404,-5.16075 2.29622,0.0516 0.90551,3.17025 1.90184,4.49562 0.32353,1.86817 -2.84535,2.95562 -2.95588,0.66513 z m 2.20887,-10.00007 c -2.17782,-0.92432 0.3154,-4.99217 1.94522,-3.05681 0.99168,1.30222 -0.0676,4.12826 -1.94522,3.05681 z m 4.79827,-9.12298 c -4.65388,-0.98153 -7.74302,-6.731751 -5.52215,-11.061878 1.7475,-4.259926 7.5303,-6.250576 11.45134,-3.728503 3.585,2.113844 5.39182,7.302732 2.99134,10.924396 -1.69182,2.551535 -4.69727,4.593175 -7.85755,4.197025 -0.36471,-0.0725 -0.72086,-0.18575 -1.06298,-0.33104 z m 72.24894,108.44055 c -2.02767,-1.1096 -1.8851,-3.69682 -2.07378,-5.68337 -0.79957,-3.76349 -0.84145,-7.6295 -1.55213,-11.40692 -0.39947,-2.50865 -0.36045,-5.06059 -0.91761,-7.54539 -0.53412,-2.7971 -0.44755,-5.66083 -1.03419,-8.44975 -0.49679,-2.69205 -0.45311,-5.44164 -1.0099,-8.12498 -0.52167,-2.95317 -0.49424,-5.96647 -1.10156,-8.9083 -0.47248,-2.79983 -0.43498,-5.65787 -1.04486,-8.43969 -0.44925,-2.63234 -0.439,-5.31888 -0.99854,-7.93758 -0.45957,-2.66974 -0.34437,-5.40352 -0.99985,-8.04678 -0.43086,-3.14537 -0.46909,-6.35147 -1.19734,-9.45783 -0.21825,-2.91285 -0.556,-5.81793 -1.06043,-8.6914 -0.44744,-5.35375 0.0942,-10.75591 1.1752,-16.00215 1.12899,-4.488451 2.57601,-8.915424 4.76595,-13.009469 2.78595,-5.462915 6.57441,-10.372483 11.03325,-14.572271 5.09114,-5.000339 11.35136,-8.683082 18.01401,-11.173976 4.18658,-1.68319 8.64003,-2.619832 13.10258,-3.195532 4.08761,-0.374439 8.22655,-0.33633 12.30055,0.154043 2.2803,0.586117 4.66886,0.546775 6.90417,1.328902 4.1219,0.962885 8.05744,2.654719 11.80787,4.602033 6.04756,3.262313 11.46948,7.656512 15.86838,12.940194 3.75874,4.302006 6.56988,9.346369 8.778,14.592549 3.64713,9.138437 4.841,19.296637 3.05893,28.995877 -0.71161,4.83174 -2.37289,9.49401 -4.44595,13.90193 -2.09425,4.42891 -4.73188,8.60671 -8.02438,12.24651 -3.63424,4.19743 -7.8688,7.87906 -12.65142,10.71399 -4.12023,2.48183 -8.5524,4.50202 -13.17585,5.83525 -2.2752,0.47331 -4.48677,1.30772 -6.82674,1.41269 -3.75028,0.75203 -7.59418,1.00196 -11.40187,0.59545 -4.73646,-0.32953 -9.44735,-1.18488 -13.9209,-2.79635 -1.31413,-0.40124 -2.64419,-0.80407 -3.84447,-1.48802 -2.25594,0.50229 -0.23043,3.39858 -0.6716,4.96983 0.34312,3.13468 0.95996,6.2362 1.1204,9.39088 0.42598,2.99485 0.87987,5.98538 1.09943,9.00375 0.50794,3.08962 0.83155,6.20092 1.21795,9.30582 0.47788,3.11516 0.87557,6.25036 1.12552,9.38532 0.12376,2.29773 -2.23379,4.27012 -4.4656,3.57172 -2.09295,-0.41657 -2.6774,-2.59973 -2.76727,-4.4282 -0.34933,-2.12317 -0.78375,-4.23962 -0.90833,-6.39221 -2.25366,-0.80825 -4.4851,0.78487 -6.78625,0.57823 -1.408,0.10756 -3.52525,-0.28591 -4.08938,1.4222 -0.24797,2.76474 0.94545,5.45556 0.82991,8.21606 -0.33004,2.29463 -3.19435,3.8981 -5.2319,2.58694 z m 6.40488,-17.0838 c 2.5586,-0.63535 5.23152,-0.46842 7.80442,-1.01758 0.42758,-2.69435 -0.16196,-5.39773 -0.58582,-8.05242 0.62669,-2.36224 -2.2093,-2.87192 -3.82446,-2.1061 -2.31271,0.3108 -4.61831,0.78327 -6.96166,0.76431 -1.15754,1.39043 -0.0225,3.25691 -0.0613,4.85027 0.31041,1.88281 0.69732,3.76434 0.7392,5.67853 0.8672,0.6896 1.95424,-0.0423 2.88964,-0.11701 z m -3.50682,-15.32013 c 2.86916,-0.71383 5.88905,-0.45449 8.74172,-1.25677 1.63997,-1.66949 0.43654,-4.15108 0.30495,-6.14483 -0.11252,-1.71898 -0.12087,-4.92231 -2.70856,-4.1938 -2.42473,0.0834 -4.81932,0.64033 -7.21837,0.83385 -2.54077,-0.009 -1.46177,3.30354 -1.09067,4.83762 0.41265,2.00536 0.14383,4.12464 0.86857,6.0695 0.35737,0.27138 0.75318,-0.0498 1.10236,-0.14557 z m 4.43454,-16.54613 c 2.11525,0.42805 4.06233,-1.71023 3.03296,-3.69838 -0.12474,-1.97953 -0.20943,-4.01087 -0.95023,-5.87707 -1.98518,-0.94418 -4.04483,0.4767 -6.08571,0.22565 -1.5833,0.37234 -4.2944,-0.23783 -4.78018,1.83147 0.0517,1.65269 0.79948,3.21876 0.73173,4.89996 -0.27964,1.74448 0.4126,3.85392 2.59972,3.25786 1.81613,-0.29104 3.65258,-0.20532 5.45171,-0.63949 z m 36.71458,-1.96617 c -1.13836,-3.1433 -0.59632,-6.60624 -1.48421,-9.78012 -1.46614,-1.8789 -4.12725,-0.44362 -6.0695,-1.24416 -2.48097,0.17817 -2.07804,3.1161 -2.7312,4.80652 -0.0579,2.00311 -2.24553,4.24222 -0.76842,5.98035 1.61172,0.92474 3.63121,0.21445 5.42995,0.53894 1.87758,0.0515 3.76891,0.0273 5.62338,-0.30153 z m 8.73152,-1.09286 c 2.54882,-0.72742 5.07971,-1.5687 7.54881,-2.51472 1.86463,-1.25668 0.36741,-3.33186 -0.62662,-4.59 -1.09275,-1.74735 -1.81058,-3.75357 -3.14505,-5.33267 -1.41765,-1.10998 -2.94626,0.38077 -4.27801,0.90061 -1.65237,0.5979 -5.00682,0.43219 -4.77752,2.93609 0.95463,2.98187 1.05526,6.16892 1.24634,9.27716 1.35174,-0.16396 2.74302,-0.19031 4.03205,-0.67647 z m -25.46462,-0.94789 c 0.9198,-3.02854 1.52836,-6.14521 2.54273,-9.14604 -0.18305,-2.44358 -3.52601,-1.88652 -5.02623,-3.18192 -1.52571,-0.42678 -3.66184,-3.23334 -4.75653,-1.057 -1.18241,1.39975 -2.57527,2.72677 -3.16311,4.51134 0.22483,1.70863 -0.86108,3.8877 0.70922,5.19693 2.27266,1.48007 4.84776,2.39122 7.2935,3.53973 0.75506,0.28784 1.62722,0.46903 2.40042,0.13696 z m 39.55617,-5.27518 c 1.65429,-1.48722 3.69542,-2.50347 5.18903,-4.17701 1.20514,-1.24896 3.36028,-2.59522 3.62491,-4.12948 -2.20042,-2.25515 -5.03924,-3.76754 -7.21745,-6.04744 -1.97684,-1.13797 -3.35659,1.20944 -4.68051,2.26644 -1.32466,1.14795 -3.90498,2.53335 -2.23908,4.54441 1.17265,1.59303 1.99215,3.39365 3.07801,5.04855 0.77809,0.72493 1.00837,3.04378 2.12565,2.65868 z m -64.60098,-5.04134 c 2.19465,-0.55349 4.49253,-0.39366 6.69702,-0.88923 -0.0241,-2.6171 -1.13659,-5.13026 -0.82722,-7.76881 0.30345,-2.25149 -1.73186,-3.43528 -3.58002,-2.26795 -2.25582,0.47176 -4.59218,0.25199 -6.84746,0.72756 -1.79743,1.03056 -0.56752,3.29098 -0.46893,4.86985 0.22574,1.79534 -0.4048,4.02692 1.11158,5.39882 1.1219,0.66697 2.68902,0.0883 3.91503,-0.0702 z m 44.34864,-6.06094 c 3.81251,-0.8331 7.56936,-2.23031 10.6235,-4.71925 5.39246,-3.82602 9.36968,-9.59168 10.97954,-16.00906 1.1104,-2.99636 0.65133,-6.2514 0.62709,-9.37503 0.0851,-1.89494 -0.272,-3.73319 -0.86752,-5.52679 -2.17869,-7.578057 -7.62123,-14.228709 -14.74018,-17.663603 -1.51074,-0.636346 -2.92894,-1.473907 -4.5551,-1.774512 -1.78681,-0.587444 -3.63757,-1.017429 -5.52839,-0.93571 -4.83659,-0.317444 -9.82462,0.16501 -14.2447,2.282091 -5.12124,2.269787 -9.38027,6.250167 -12.42378,10.911655 -2.18356,3.871219 -3.95456,8.181419 -3.88765,12.699249 -0.0344,2.87474 -0.16654,5.79836 0.36974,8.63311 1.32948,4.67822 3.4177,9.2399 6.81131,12.79238 3.72447,4.1659 8.7317,7.19792 14.17821,8.47911 3.3822,1.15209 7.00859,0.61681 10.50781,0.62613 0.7293,-0.0584 1.45395,-0.19398 2.15012,-0.41977 z m -30.2162,-0.7701 c 0.83683,-1.53191 -1.95322,-1.47894 -0.68092,0.12303 0.15918,0.52422 0.73423,0.38491 0.68092,-0.12303 z m 63.0328,-0.99603 c 2.48306,-2.85196 3.71183,-6.49068 5.38826,-9.80853 0.47794,-2.83187 -3.23157,-2.34877 -4.94595,-3.03414 -1.93739,-0.31052 -4.52795,-2.17596 -6.14406,-0.32496 -0.88739,1.45682 -1.07058,3.25832 -2.24725,4.56346 -1.43406,1.46337 -0.96037,3.54331 0.97745,4.13843 1.83166,1.42963 3.76354,2.73858 5.44944,4.33217 0.43899,0.31321 1.04204,0.42062 1.52211,0.13357 z m -79.92102,-7.68954 c 2.31731,-0.53932 4.74297,-0.2478 7.05199,-0.83789 1.09715,-2.24635 -0.6742,-4.56027 -0.34785,-6.87912 0.39491,-1.88935 -0.57332,-4.51618 -2.87936,-3.50284 -2.56214,0.23929 -5.08154,0.96586 -7.67169,0.86118 -1.942,0.72422 -0.095,3.20173 -0.52935,4.70574 0.15206,1.98918 0.36151,3.99131 0.939,5.90865 1.0692,0.76887 2.30591,-0.32582 3.43726,-0.25572 z m 87.05257,-9.21924 c 1.00249,-2.68184 0.53258,-5.60259 0.65782,-8.38982 -0.14759,-1.29996 0.96853,-4.3595 -1.37078,-3.87697 -2.56249,0.24385 -5.07838,1.1814 -7.67897,0.7859 -2.43932,0.28258 -2.02919,3.16259 -2.12129,4.92697 0.17668,1.59783 -1.22329,3.94567 0.94606,4.5725 1.52594,0.67426 3.29241,0.50263 4.78871,1.26496 1.62534,0.006 3.15988,1.63307 4.77845,0.71646 z m -86.79585,-6.59711 c 1.68295,-0.56595 4.7559,0.48686 5.21247,-1.90543 0.2957,-2.10399 0.18754,-4.25116 0.55782,-6.34362 -0.18684,-1.92533 -2.52123,-1.75327 -3.92841,-2.14025 -1.94833,-0.40881 -3.77389,-1.67876 -5.81799,-1.56311 -1.92125,0.74474 -1.32541,3.27602 -1.64146,4.90876 -0.0648,2.16703 -0.2566,4.34469 -0.0722,6.50861 0.74137,2.06074 3.24467,0.53796 4.78596,0.56351 0.30052,-0.0245 0.60228,-0.0353 0.90378,-0.0287 z m 78.2387,-9.74243 c 2.50532,-0.59587 5.11427,-0.39337 7.63399,-0.89501 1.76363,-1.31883 0.43911,-3.59482 0.01,-5.24895 -0.66357,-2.322538 -1.36026,-4.670625 -2.59232,-6.766152 -1.67268,-1.619058 -3.37308,0.865686 -4.91664,1.481595 -1.79006,0.982053 -3.96078,1.651776 -5.08435,3.486897 0.31628,2.126278 1.80303,3.90628 1.87973,6.09453 0.16521,1.65349 1.50081,2.87907 3.06975,1.84709 z m -70.56819,-5.39863 c 1.09112,-2.043989 1.92546,-4.237425 3.15392,-6.196803 0.38563,-2.498445 -2.65986,-3.325613 -4.08897,-4.781195 -1.66796,-0.678469 -3.17614,-4.046878 -5.02586,-2.246634 -1.15105,1.215142 -1.35775,2.999159 -2.41492,4.280001 -0.96247,1.925295 -1.68403,3.964566 -2.72438,5.851954 0.21938,1.912563 2.48371,1.911011 3.95213,2.176291 2.22582,0.320611 4.27162,1.518986 6.53803,1.575966 0.28114,-0.13042 0.47284,-0.39126 0.61005,-0.65958 z m 63.84992,-7.79252 c 2.73148,-1.721394 5.60424,-3.202067 8.37369,-4.859376 0.12378,-2.357209 -2.24628,-3.600144 -3.33703,-5.395621 -1.48956,-1.695136 -3.03642,-3.360307 -4.83089,-4.739439 -2.1954,2.65007 -4.40778,5.301782 -6.42078,8.08932 -0.43474,1.921874 1.8172,3.016793 2.75347,4.416739 1.04937,0.767439 1.81168,3.935697 3.46154,2.488377 z m -55.44732,-4.901616 c 1.47296,-1.489603 3.2857,-2.609034 4.66549,-4.195742 -0.38681,-2.292008 -2.17159,-3.977133 -3.09082,-6.039745 -0.89071,-1.065696 -1.44447,-4.541541 -3.30507,-3.193711 -2.99012,2.100628 -5.73196,4.569663 -8.20092,7.261503 -0.98563,1.739936 2.37035,2.529046 3.28613,3.785912 1.75909,1.090562 3.47037,3.677854 5.66933,3.208814 0.36012,-0.233076 0.64101,-0.562532 0.97586,-0.827031 z m 45.00936,-4.691435 c 1.95797,-1.83139 3.04753,-4.388685 5.05323,-6.181669 1.45508,-1.274485 1.14506,-3.559973 -0.80415,-4.06398 -1.7213,-0.91226 -3.42697,-1.906504 -5.19069,-2.705988 -1.49709,-0.493953 -3.90538,-2.516945 -5.01594,-0.459254 -0.90512,1.973398 -0.72603,4.264108 -1.7315,6.211718 -0.47534,1.394701 -0.94677,3.563785 0.72442,4.336065 2.27888,0.633142 4.2238,2.09405 6.3542,3.091893 l 0.32751,-0.05449 z m -33.48725,-2.914678 c 1.94501,-0.968856 4.23727,-0.923242 6.14404,-1.98716 1.0331,-1.948391 -0.54328,-4.013036 -0.36902,-6.055412 -0.44143,-1.707252 0.77134,-4.910128 -1.79045,-5.111295 -1.8884,0.124486 -3.63776,0.99715 -5.46162,1.459251 -2.09397,0.698291 -4.13363,1.549962 -6.13737,2.473571 0.65041,3.226504 3.20415,5.568653 4.41583,8.556826 0.60239,1.197603 2.22221,1.914192 3.19859,0.664219 z m 20.35834,-2.831769 c 1.12581,-2.821455 1.41092,-5.903119 2.5715,-8.711542 0.24762,-2.474004 -2.74974,-2.300727 -4.42226,-2.272201 -2.48317,-0.104345 -4.98158,-0.351192 -7.46211,-0.181967 -2.07732,0.740471 -0.39658,3.163078 -0.4167,4.670113 0.18527,1.943018 0.0888,3.939818 0.68835,5.821113 1.22017,1.699686 3.53882,0.84586 5.28945,1.046514 1.21762,0.08898 2.77592,0.656206 3.75177,-0.37203 z M 668.73753,194.14503 c -2.41559,-0.50366 -4.91572,-0.65991 -7.2246,-1.59534 -5.16654,-1.54273 -10.03653,-4.09956 -14.2612,-7.44705 -4.24697,-3.46727 -8.08418,-7.51395 -10.78941,-12.31464 -2.09386,-3.61275 -3.9179,-7.41802 -4.8857,-11.49938 -0.52408,-1.97525 -0.74591,-4.02964 -1.214,-6.01911 -0.25779,-3.3735 -0.0923,-6.76686 -0.0555,-10.14253 0.41633,-3.00695 1.10024,-5.98825 2.03487,-8.87565 2.32167,-7.23495 6.76112,-13.67675 12.35496,-18.77728 5.57092,-5.24803 12.61782,-8.84285 20.07692,-10.4883 2.17276,-0.75739 4.49185,-0.86875 6.77552,-0.74233 3.55379,0.0804 7.14076,-0.12228 10.67173,0.31353 2.8897,0.73269 5.84946,1.246 8.59143,2.46885 7.28877,2.91242 13.82726,7.74463 18.58461,14.00534 1.52783,1.57181 2.49214,3.50553 3.5617,5.39398 1.3879,2.42961 2.94546,4.91962 3.32717,7.73621 -0.12007,2.58506 -2.35156,4.52164 -4.71436,5.17407 -2.82877,1.23343 -5.65373,2.48009 -8.52306,3.60992 -1.58305,0.84726 -3.21758,1.5887 -4.90165,2.19512 -3.38583,1.50684 -6.81278,2.93327 -10.1837,4.46438 -2.0822,0.70987 -4.34699,1.8693 -5.0261,4.13819 -1.39933,2.81837 -4.54808,4.50183 -7.60118,4.77571 -3.4406,0.005 -6.87503,-1.98684 -8.575,-4.98258 -1.07239,-1.9052 -0.86382,-4.1763 -0.80967,-6.27704 0.14952,-2.7055 2.20199,-4.85677 4.38826,-6.21728 1.8533,-1.07757 4.0941,-0.95119 6.16073,-0.89248 1.44478,-0.12623 2.65318,1.26068 4.02659,0.66118 2.37668,-0.94841 4.71228,-1.99897 7.0788,-2.97867 3.70868,-1.65631 7.4758,-3.18535 11.13846,-4.93811 1.29164,-0.67939 2.65836,-1.21547 4.06146,-1.57995 2.17187,-1.33558 -0.1969,-3.31131 -1.10782,-4.59946 -0.95839,-1.2325 -2.40914,-3.79775 -3.98222,-1.75112 -0.47289,1.1702 -3.09488,1.91391 -2.64561,0.0263 0.92555,-1.30664 2.8985,-3.45786 0.46188,-4.40501 -2.14186,-1.31553 -4.14901,-2.96728 -6.53233,-3.82023 -2.18123,-0.47736 -1.1343,2.9782 -3.14945,3.19749 -2.33768,-0.44339 0.40052,-3.34899 -0.74131,-4.70894 -1.34673,-0.84909 -3.10513,-0.75956 -4.62477,-1.22346 -1.59138,-0.36707 -3.23645,-0.38326 -4.83861,-0.51424 -2.37677,0.31155 0.0911,3.05658 -1.69752,3.92308 -2.50141,0.92493 -1.12414,-2.56262 -2.1802,-3.6271 -1.32424,-0.58731 -2.91083,0.17596 -4.31684,0.35056 -1.49893,0.43779 -3.03941,0.74281 -4.53528,1.16413 -2.20477,1.14899 0.40156,3.13191 -0.13715,4.56921 -1.54349,1.60414 -2.45958,-0.80849 -2.77048,-2.05453 -1.27611,-1.85185 -2.83757,0.55927 -4.16642,1.08782 -1.83016,1.19678 -3.59111,2.53928 -5.02648,4.20072 -0.47707,1.67202 3.58688,3.25084 1.20709,4.46767 -1.67461,-0.56534 -3.77036,-3.11492 -4.96079,-0.38481 -1.45278,1.96542 -2.58562,4.15607 -3.78622,6.26983 -0.42043,2.23172 3.67584,1.44709 3.24859,3.71071 -1.24793,1.84851 -4.52903,-1.66742 -4.98503,1.22068 -0.57315,3.20686 -1.51968,6.47864 -0.98718,9.75655 1.31159,-0.61945 5.00319,-0.19502 3.3529,1.88068 -1.4484,0.33015 -4.0847,0.12228 -3.32133,2.41399 0.0481,2.28183 1.02826,4.41009 1.42305,6.6284 0.56407,1.63208 2.39846,1.25903 3.37938,0.39977 2.22768,-0.0466 1.11017,3.13384 -0.68334,2.84938 -1.81068,1.12306 0.44791,2.94212 0.98935,4.19945 1.09666,1.85608 2.59437,3.43815 3.87006,5.14937 1.71324,1.13731 2.0111,-2.21949 3.63806,-1.63872 1.98311,1.36009 -1.61679,2.51505 -0.74305,4.16525 0.78868,1.3297 2.41728,1.86013 3.56438,2.86631 1.35577,0.83639 2.70758,1.85312 4.26052,2.23681 1.72124,-0.15047 1.57059,-4.12846 3.57544,-2.67493 0.11631,1.64676 -1.28782,4.75505 1.46736,4.76112 2.02833,0.56473 4.10973,0.96874 6.2155,1.07634 1.89386,0.86881 3.5777,-1.31925 2.6322,-2.99528 0.64862,-2.05608 3.14725,-0.1323 2.07613,1.43015 0.0113,2.02974 2.28578,1.73479 3.64606,1.4524 1.99742,-0.24103 3.98481,-0.66155 5.90121,-1.2642 1.2229,-1.11723 -2.02409,-1.12485 -1.23433,-2.68523 0.68343,-2.36011 3.07352,-0.99739 4.53453,-0.34223 2.00556,0.8186 4.11231,1.41457 6.06546,2.34299 1.52641,1.15086 0.75325,3.25358 0.12934,4.69182 -1.22243,2.32313 -1.384,5.20135 -3.28275,7.14781 -2.04941,1.41618 -2.12139,-2.89586 -3.89852,-1.97968 -2.2887,0.87855 -4.69681,1.36936 -7.11941,1.67184 -4.03289,0.74836 -8.19494,0.73877 -12.25211,0.19149 z M 556.81641,172.79379 c -2.62576,-0.80388 -5.41393,-1.48101 -7.49471,-3.3959 -2.48296,-2.02842 -4.57043,-4.72574 -5.15125,-7.94619 -0.54389,-2.54719 -0.12666,-5.16334 -0.27298,-7.74294 -0.0637,-13.24923 -0.13018,-26.50593 0.11983,-39.7503 1.16193,-1.51277 2.81311,1.26877 3.96313,1.75657 1.3193,1.43523 4.28747,1.6365 4.36388,3.9348 -0.48667,2.07552 -2.66443,3.30015 -2.87144,5.56584 -0.77198,1.87697 -0.18114,3.86597 0.5923,5.63487 2.0479,4.94743 8.70288,7.00436 13.28714,4.36233 1.54744,-0.90245 2.84853,-2.21525 3.59176,-3.85566 1.42516,-1.98194 3.61397,0.51349 4.89201,1.46962 1.41867,0.56557 1.96279,2.08093 1.91306,3.51385 -0.12379,3.69372 0.0707,7.38979 0.0118,11.08751 0.005,4.27219 -0.01,8.54442 0,12.81661 -1.28749,4.79838 -4.4768,9.25758 -9.15502,11.21049 -2.42843,1.08664 -5.13248,1.58786 -7.78717,1.3385 z m 6.00283,-7.82429 c 2.42524,-1.39576 4.72494,-3.65331 4.87729,-6.61071 0.61558,-3.72788 -1.00982,-7.88658 -4.42628,-9.71495 -2.24804,-1.39326 -5.12847,-1.42064 -7.62517,-0.78543 -4.7638,1.4531 -7.77503,7.23979 -5.79399,11.91199 1.24614,3.27306 4.40877,6.19767 8.09755,5.9292 1.61218,-0.16598 3.40893,0.0781 4.8706,-0.7301 z m -11.16288,-4.27543 c -1.58931,-3.16282 -0.67816,-7.21553 1.94355,-9.54426 3.16446,-3.18724 9.00493,-2.74098 11.74948,0.77998 1.0451,0.61577 1.15576,3.03743 -0.46724,1.85598 -1.42737,-1.12922 -3.44855,-1.31868 -5.22107,-1.15274 -3.27192,0.30756 -6.00876,3.2316 -6.32601,6.46227 0.65153,1.35759 -0.56417,4.34981 -1.57929,1.77087 z M 500.98419,158.334 c -7.47431,-1.65561 -14.05148,-6.90256 -17.23713,-13.87714 -1.99417,-3.64827 -2.73064,-7.87999 -2.5224,-12.00807 -0.0656,-2.41074 0.2805,-4.80483 1.01025,-7.10265 0.71712,-3.30712 2.09908,-6.40953 3.02093,-9.65576 1.01603,-2.37169 1.33009,-4.96851 2.12589,-7.41562 0.2772,-1.74773 1.6481,-3.83431 0.22969,-5.40024 -1.2203,-1.42591 -3.01735,-2.29288 -3.94401,-3.985712 -1.88489,-2.726138 -2.76706,-6.1043 -2.40687,-9.405095 0.24845,-6.252788 5.26346,-11.844048 11.32988,-13.123577 2.18787,-0.63581 4.48211,-1.081006 6.75344,-0.637471 3.78161,0.450672 7.60574,1.798206 10.31105,4.576725 3.96797,3.212686 6.06969,8.180613 6.78319,13.136402 0.60044,2.85598 0.93096,5.792004 0.45398,8.695308 -0.43356,4.14859 -1.71127,8.13143 -2.55156,12.19886 -0.60613,4.01694 -2.51802,7.67754 -3.36937,11.63299 -1.10471,1.5872 -1.00299,4.64491 1.50293,4.52159 3.46474,0.83014 6.13881,3.51089 8.18732,6.29026 1.29432,1.86902 2.00466,4.13335 1.8351,6.41056 0.18467,2.52004 0.0625,5.20846 -1.35524,7.39243 -2.00561,3.97756 -5.98887,6.83664 -10.38178,7.5284 -2.67106,0.86207 -5.49955,0.68799 -8.25921,0.59902 -0.51826,-0.0581 -1.03288,-0.1721 -1.51608,-0.37121 z m 9.38497,-50.35749 c 0.66876,-3.79511 0.53716,-7.69965 0.13687,-11.512308 -1.14245,-5.467498 -3.75122,-10.904579 -8.39857,-14.220161 -1.57345,-0.928987 -3.70193,-2.153337 -5.44304,-0.901449 -1.63136,1.154492 -1.0554,3.434969 0.29875,4.546717 2.98495,3.28548 6.59523,6.052674 8.96829,9.855585 1.65283,3.077359 2.89384,6.455696 3.24445,9.949366 0.0358,0.7749 -0.24922,3.8089 1.03376,2.62392 z m 94.96347,41.44303 c -3.6964,-0.64603 -6.80582,-2.87328 -9.70822,-5.11432 -4.98625,-3.61891 -9.80279,-7.46403 -14.74561,-11.14091 -6.13622,-4.80445 -12.46619,-9.37987 -18.62062,-14.1439 -1.2626,-2.24603 2.2218,-1.83021 3.3776,-2.5845 1.97766,-0.99033 4.02165,-1.82964 5.92074,-2.96403 2.80364,-1.26124 2.15799,2.63822 2.11485,4.24828 0.65605,3.06035 3.06058,5.70215 6.01144,6.74471 3.08416,0.71316 6.69479,0.605 9.14124,-1.66079 1.97013,-1.63227 3.45292,-4.11763 3.16969,-6.74719 0.0647,-1.81082 -0.0292,-3.78189 -1.22841,-5.2486 -1.07643,-1.91376 -3.27126,-2.71411 -4.68612,-4.30944 1.19994,-1.71823 3.56043,-3.02332 5.59393,-3.03264 1.69014,0.85366 2.89709,2.41601 4.52484,3.39656 7.0406,5.44046 14.30307,10.59458 21.24645,16.15906 2.23614,1.88148 3.89772,4.41225 4.61282,7.25457 0.75133,2.18481 1.10777,4.57339 0.44287,6.82652 -1.17406,6.54794 -7.13957,11.93707 -13.80786,12.31074 -1.11789,0.0994 -2.24094,0.0761 -3.35963,0.006 z m 2.80774,-6.73285 c 3.20695,-0.8618 6.21376,-3.13083 7.11503,-6.4418 0.65349,-2.74488 0.33177,-5.8599 -1.41735,-8.15387 -2.27407,-3.30373 -6.98616,-4.93609 -10.70213,-3.19453 -3.01156,0.9877 -5.53395,3.84729 -5.71513,7.05763 -0.005,2.26159 -0.38543,4.86237 1.30335,6.67596 2.07688,2.87526 5.8311,4.60967 9.33978,4.11721 l 0.0761,-0.0603 z m -7.95391,-3.94049 c -1.77675,-2.0367 -1.28481,-4.93878 -1.12254,-7.40687 0.72239,-2.755 3.29023,-4.66001 5.87105,-5.55102 3.19006,-0.83654 6.75793,0.68023 8.63433,3.31935 0.78991,2.397 -2.42899,0.56242 -3.4078,0.0528 -2.84627,-0.74182 -5.83261,0.89591 -7.56331,3.10617 -1.18154,1.76086 -1.06264,3.96463 -1.01437,5.98087 -0.0588,0.84208 -0.95867,1.64652 -1.39736,0.49867 z m -48.10167,-7.34778 c -1.85448,-3.35656 -1.4739,-8.20383 1.80767,-10.5407 2.11372,-0.93764 4.13414,2.02559 1.74791,3.13233 -1.7162,1.79614 -2.62265,4.33034 -2.37837,6.80822 0.0339,0.73504 -0.63747,1.4579 -1.17721,0.60015 z m 24.31029,-10.89315 c -1.86267,-2.27369 -2.08587,-5.635 -0.61056,-8.16666 1.26327,-2.63446 4.00495,-4.5836 6.9888,-4.43978 1.98452,-0.11291 4.1061,0.30832 5.576,1.73075 1.14179,0.40556 2.44001,3.51051 0.31368,2.58233 -2.14289,-1.23603 -4.84219,-1.08773 -7.12326,-0.35042 -2.93957,1.24783 -4.62416,4.73637 -3.92454,7.82824 0.10911,0.71872 -0.60133,1.69042 -1.22012,0.81554 z m -22.65911,-7.0978 c -4.14506,-1.02101 -7.91429,-3.6327 -10.01705,-7.38923 -2.26611,-3.73348 -2.52827,-8.468925 -1.2101,-12.576016 0.65497,-1.428595 1.0746,-2.940442 1.10349,-4.524425 0.39041,-18.300148 0.083,-36.611461 0.51843,-54.912494 1.00374,-4.129896 3.80998,-7.861668 7.5531,-9.89463 2.18368,-1.083058 4.61296,-1.729412 7.04299,-1.865957 6.642,0.21189 13.0655,5.065935 14.45499,11.677076 0.50451,3.005981 0.21737,6.072862 0.3715,9.105285 0.11894,9.690622 0.0486,19.384745 0.37635,29.071908 2.24997,-0.171568 3.78109,-2.149605 5.90469,-2.732716 8.25116,-4.087496 16.38654,-8.405404 24.54642,-12.667782 3.23599,-1.401329 6.92636,-2.069533 10.37152,-1.034442 6.23685,1.558205 11.16513,7.507947 11.27198,13.965896 0.2105,6.052914 -3.63938,11.875867 -9.1315,14.320083 -4.02869,2.060128 -7.87391,4.478652 -11.99107,6.372052 -5.54872,2.959125 -11.24174,5.640756 -16.73701,8.699291 -3.20935,2.042471 -6.77133,3.432541 -10.04001,5.371231 -5.25188,2.57866 -10.51111,5.15248 -15.61301,8.01856 -2.72916,1.26463 -5.83764,1.32697 -8.77571,0.99631 z m 8.16365,-7.21167 c 4.10672,-1.52819 6.68246,-6.13852 5.85544,-10.440015 -0.0104,-0.990008 -1.07362,-3.347359 -1.57097,-1.316029 -1.10763,0.599196 -1.98758,-1.383376 -3.37534,-1.258009 -2.50225,-0.538433 -5.45067,-0.290085 -7.26953,1.71859 -1.62296,1.645716 -2.53025,4.068111 -2.17061,6.360403 -0.51532,2.09575 -2.05815,0.22123 -2.10308,-1.01489 -0.83649,-2.653386 -0.40651,-5.740903 1.52688,-7.826217 1.56781,-2.029146 4.13776,-3.27233 6.71652,-2.892673 2.23929,0.06714 4.60105,0.918325 5.87269,2.859542 1.87354,0.748558 -0.015,-1.558276 -0.70328,-1.981957 -1.71197,-1.322202 -3.84419,-2.223383 -6.01423,-2.33781 -3.31878,0.114611 -6.69774,1.888921 -8.20679,4.936781 -1.42624,2.666175 -1.70463,6.07657 -0.0782,8.721794 1.20403,2.50215 3.60084,4.39465 6.38492,4.73684 1.70585,0.27904 3.4619,0.13926 5.13562,-0.26635 z m 25.5282,-13.339105 c 3.26384,-1.110473 5.85765,-4.271396 5.8974,-7.782947 0.11866,-2.610078 -0.32388,-5.485226 -2.34021,-7.343895 -2.54366,-2.58493 -6.69069,-4.064051 -10.12282,-2.392034 -3.97394,1.668021 -6.82582,6.161423 -5.77733,10.492166 0.67981,2.920945 2.82124,5.467343 5.48694,6.791249 2.17075,0.886905 4.61042,0.7144 6.85602,0.235461 z m -9.82914,-4.038603 c -1.41716,-2.721631 -1.70698,-6.314369 0.3181,-8.822761 1.65062,-2.364097 4.4921,-3.853573 7.39525,-3.626308 1.63547,-0.02611 3.16197,0.686892 4.37259,1.741419 0.90786,0.299118 3.01316,2.944897 1.18347,2.708227 -1.83665,-0.70214 -3.76792,-1.704475 -5.78321,-1.134233 -3.12843,0.360593 -5.26243,3.330831 -5.96614,6.195101 -0.20494,1.155969 0.67012,4.840476 -1.44515,3.196624 z m 34.7004,-9.302656 c 5.76122,-0.766695 9.34823,-7.983836 6.58886,-13.073234 -1.32866,-2.833298 -4.23331,-4.824513 -7.27587,-5.347438 -3.6414,-0.418548 -7.62946,1.230269 -9.30676,4.61641 -2.14609,3.912525 -1.38408,9.455532 2.38576,12.109488 2.12836,1.649104 4.98719,2.195051 7.60801,1.694774 z m -8.31642,-4.053098 c -2.36647,-2.795385 -1.86084,-7.186888 0.58119,-9.772002 1.56697,-1.876896 4.0178,-2.839875 6.43908,-2.682063 2.05241,-0.02032 4.11019,0.825154 5.51638,2.327832 1.82898,0.872838 0.14256,2.772651 -1.11354,1.184335 -2.15696,-0.648095 -4.61551,-0.585873 -6.67164,0.357628 -2.77278,1.511509 -4.29388,5.00233 -3.49837,8.061415 0.2965,1.1861 -0.51039,1.237807 -1.2531,0.522855 z m -42.29612,1.383329 c 4.1747,-1.356059 6.93464,-5.941474 6.13358,-10.267818 -0.44611,-3.071177 -2.52111,-5.954111 -5.37971,-7.197211 -2.3749,-0.824933 -5.04168,-0.752102 -7.43882,-0.06284 -4.69191,1.784378 -7.33526,7.827276 -5.01561,12.386658 1.39171,2.843154 4.13476,5.009458 7.23674,5.640516 1.49988,0.215639 3.03348,-0.0358 4.46382,-0.499307 z m -9.99066,-5.055024 c -1.7106,-3.804497 -0.28958,-8.927973 3.59544,-10.778394 2.68226,-1.539432 6.23252,-1.333085 8.62463,0.673609 1.02798,0.599075 2.90481,3.116401 0.5143,2.722563 -1.58913,-0.90604 -3.32839,-1.490143 -5.15111,-0.969316 -2.86105,0.635965 -5.47909,2.875204 -5.92601,5.871549 -0.53791,1.014056 0.50013,3.720651 -0.99419,3.467668 -0.29532,-0.272013 -0.50356,-0.623125 -0.66306,-0.987679 z m 11.15296,-25.019479 c 2.96921,-1.170799 4.61051,-4.288385 5.203,-7.267214 0.38764,-2.500586 -0.57282,-5.07647 -2.08526,-7.043337 -1.77087,-2.132381 -4.49609,-3.543525 -7.30896,-3.340895 -2.62345,-0.110024 -5.27268,0.891522 -6.9966,2.913149 -2.07368,2.37362 -3.37294,5.855328 -2.18495,8.937646 1.08871,3.375005 4.02339,6.52178 7.73437,6.690422 1.89236,0.01223 3.99775,0.269389 5.6384,-0.889771 z m -11.14157,-4.579246 c -2.3612,-4.665996 1.37086,-11.13447 6.64383,-11.253386 2.80473,-0.29822 5.78763,1.005968 7.2971,3.424261 -0.56002,1.776451 -2.57602,-0.870058 -3.89109,-0.405595 -3.01654,-0.405713 -6.2863,1.020751 -7.73621,3.758675 -1.24125,1.652411 -0.31923,4.00699 -1.59115,5.629775 -0.36533,-0.297844 -0.47308,-0.774657 -0.72248,-1.15373 z m 147.48736,61.111552 c -0.5612,-2.75942 -0.23153,-5.589295 -0.46287,-8.377209 -0.98328,0.09128 -3.85533,-1.017745 -1.99483,-1.831193 2.079,-0.298262 4.18627,-0.109036 6.27628,-0.211626 1.7474,0.293684 0.2272,2.451627 -1.03776,1.745686 -1.8389,0.720253 -0.52624,3.300658 -0.97123,4.816486 -0.24578,1.478866 0.76511,4.474246 -1.62676,4.056076 z m 5.98048,0.0108 c -0.16782,-3.439985 -0.006,-6.883347 0.0136,-10.324602 2.19803,-0.891644 3.33473,1.781805 3.56292,3.51307 -0.0874,1.47044 1.60898,4.422622 2.55721,1.878905 0.76096,-1.706851 0.55945,-3.921916 2.05439,-5.240035 1.94618,-1.09355 2.16966,1.67308 1.87593,2.937934 0.0442,2.299476 0.10097,4.601918 -0.0263,6.899838 -2.00819,1.13275 -1.26275,-2.43013 -1.67236,-3.37054 -1.72665,-0.906187 -1.17241,2.49453 -2.14891,3.24077 -1.64022,1.80259 -3.16819,-0.73156 -3.08359,-2.3516 0.17497,-1.197567 -1.53093,-2.020481 -1.19006,-0.31123 0.13555,1.20733 0,4.20585 -1.94303,3.12749 z M 498.93059,67.318263 c -8.23708,-0.813726 -14.28138,-10.241618 -11.51628,-18.061135 1.9037,-6.027409 8.20431,-10.367685 14.53272,-9.753936 3.41344,0.246386 6.64232,1.975247 9.04445,4.36381 3.49527,3.88183 5.2843,9.791405 3.07549,14.741256 -0.92672,2.32309 -2.5549,4.3112 -4.53951,5.809987 -2.78925,2.633551 -6.88846,3.441457 -10.59687,2.900018 z m 10.99594,-13.100816 c 0.62942,-5.066504 -3.70412,-9.76166 -8.60257,-10.410202 -1.76925,-0.680954 -5.38203,-0.03637 -4.35963,2.54022 0.8346,1.942981 3.13136,1.993845 4.84818,2.637315 1.77233,0.610992 3.53902,1.584618 4.54695,3.224641 1.8718,1.078339 0.81978,5.0162 3.18075,5.031919 0.75843,-0.803619 0.0362,-2.074953 0.38632,-3.023893 z"
         id="path300" /><g
         id="g2303"
         transform="matrix(1.7795336,0,0,1.7795336,835.31293,10.860947)"><path
           id="path1948"
           style="fill:url(#linearGradient1478);fill-opacity:1"
           d="m 60.510156,6.3979729 c -4.583653,0.021298 -8.960939,0.4122177 -12.8125,1.09375 C 36.35144,9.4962267 34.291407,13.691825 34.291406,21.429223 v 10.21875 h 26.8125 v 3.40625 h -26.8125 -10.0625 c -7.792459,0 -14.6157592,4.683717 -16.7500002,13.59375 -2.46182,10.212966 -2.5710151,16.586023 0,27.25 1.9059283,7.937852 6.4575432,13.593748 14.2500002,13.59375 h 9.21875 v -12.25 c 0,-8.849902 7.657144,-16.656248 16.75,-16.65625 h 26.78125 c 7.454951,0 13.406253,-6.138164 13.40625,-13.625 v -25.53125 c 0,-7.266339 -6.12998,-12.7247775 -13.40625,-13.9375001 -4.605987,-0.7667253 -9.385097,-1.1150483 -13.96875,-1.09375 z m -14.5,8.2187501 c 2.769547,0 5.03125,2.298646 5.03125,5.125 -2e-6,2.816336 -2.261703,5.09375 -5.03125,5.09375 -2.779476,-1e-6 -5.03125,-2.277415 -5.03125,-5.09375 -1e-6,-2.826353 2.251774,-5.125 5.03125,-5.125 z" /><path
           id="path1950"
           style="fill:url(#linearGradient1475);fill-opacity:1"
           d="m 91.228906,35.054223 v 11.90625 c 0,9.230755 -7.825895,16.999999 -16.75,17 h -26.78125 c -7.335833,0 -13.406249,6.278483 -13.40625,13.625 v 25.531247 c 0,7.26634 6.318588,11.54032 13.40625,13.625 8.487331,2.49561 16.626237,2.94663 26.78125,0 6.750155,-1.95439 13.406253,-5.88761 13.40625,-13.625 V 92.897973 h -26.78125 v -3.40625 h 26.78125 13.406254 c 7.79246,0 10.69625,-5.435408 13.40624,-13.59375 2.79933,-8.398886 2.68022,-16.475776 0,-27.25 -1.92578,-7.757441 -5.60387,-13.59375 -13.40624,-13.59375 z m -15.0625,64.65625 c 2.779478,3e-6 5.03125,2.277417 5.03125,5.093747 -2e-6,2.82635 -2.251775,5.125 -5.03125,5.125 -2.76955,0 -5.03125,-2.29865 -5.03125,-5.125 2e-6,-2.81633 2.261697,-5.093747 5.03125,-5.093747 z" /></g><text
         xml:space="preserve"
         id="text564"
         style="font-size:176.979px;line-height:1.25;font-family:sans-serif;letter-spacing:0px;word-spacing:0px;white-space:pre;shape-inside:url(#rect566)"
         transform="matrix(1.0848744,0,0,1.0848744,-844.0118,-203.04655)"><tspan
           x="1453.3672"
           y="362.58001"
           id="tspan684"><tspan
             style="font-weight:bold;font-family:BetecknaGS;-inkscape-font-specification:'BetecknaGS Bold'"
             id="tspan682">+</tspan></tspan></text></g></g></svg>
